<?xml version="1.0" standalone="no"?>
<!DOCTYPE svg PUBLIC "-//W3C//DTD SVG 20010904//EN"
 "http://www.w3.org/TR/2001/REC-SVG-20010904/DTD/svg10.dtd">
<svg version="1.0" xmlns="http://www.w3.org/2000/svg"
 width="700.000000pt" height="700.000000pt" viewBox="0 0 700.000000 700.000000"
 preserveAspectRatio="xMidYMid meet">
<metadata>
Created by potrace 1.14, written by Peter Selinger 2001-2017
</metadata>
<g transform="translate(0.000000,700.000000) scale(0.100000,-0.100000)"
fill="#000000" stroke="none">
<path d="M1367 6990 c-358 -43 -668 -193 -920 -447 -253 -255 -401 -569 -437
-923 -8 -84 -10 -667 -8 -2135 l3 -2020 23 -108 c130 -611 558 -1051 1172
-1205 l105 -27 2095 -2 c2045 -3 2098 -3 2211 16 633 108 1141 615 1249 1248
19 112 20 175 20 2163 0 1410 -3 2073 -11 2126 -35 250 -137 500 -292 710 -69
94 -235 256 -334 327 -170 121 -383 213 -600 259 l-108 23 -2050 1 c-1127 1
-2081 -2 -2118 -6z m2078 -1110 c911 -104 1610 -835 1664 -1740 32 -525 -153
-1033 -511 -1405 l-108 -113 585 -882 585 -882 0 -54 c0 -65 -16 -100 -66
-144 -89 -78 -190 -91 -261 -33 -24 19 -234 328 -605 888 -312 471 -569 860
-572 862 -2 2 -46 -16 -98 -41 -276 -134 -567 -195 -878 -183 -178 7 -297 25
-462 73 -930 267 -1505 1228 -1303 2180 169 801 836 1396 1655 1477 80 8 291
6 375 -3z"/>
<path d="M3084 5590 c-552 -58 -1034 -402 -1269 -905 -198 -421 -194 -925 9
-1348 117 -244 315 -473 536 -622 162 -108 443 -232 462 -203 4 7 8 81 8 163
l0 150 -167 0 c-148 0 -174 3 -219 21 -91 37 -116 64 -198 213 -78 142 -142
218 -215 255 -24 13 -31 23 -29 39 4 27 53 34 133 17 72 -15 131 -62 228 -183
124 -154 167 -182 278 -175 79 4 182 50 187 83 11 82 27 130 54 161 27 31 28
34 10 34 -53 0 -228 56 -331 106 -100 49 -125 66 -202 143 -99 98 -148 183
-174 306 -37 177 2 409 110 642 l35 76 -16 86 c-22 118 -16 232 17 296 33 67
43 71 138 58 98 -15 200 -60 293 -130 l66 -51 79 19 c184 44 452 44 670 0 l92
-19 95 62 c106 70 226 116 305 116 l50 0 21 -57 c28 -74 38 -219 20 -314 l-12
-69 31 -48 c88 -138 131 -288 131 -463 0 -269 -105 -485 -298 -612 -108 -72
-261 -129 -382 -143 l-57 -6 41 -71 41 -71 3 -323 c2 -178 7 -323 12 -323 27
0 201 70 301 122 357 183 641 514 769 895 62 186 74 266 74 503 0 182 -4 230
-21 310 -50 223 -138 428 -258 601 -86 124 -277 310 -408 397 -312 207 -680
300 -1043 262z"/>
</g>
</svg>
