<svg width="14" height="15" viewBox="0 0 14 15" fill="none" xmlns="http://www.w3.org/2000/svg">
<path d="M12.029 0.674552C11.5695 0.673681 11.1246 0.83545 10.773 1.13121C10.4213 1.42696 10.1857 1.83762 10.1079 2.29044C10.03 2.74327 10.1149 3.20903 10.3476 3.60525C10.5802 4.00146 10.9456 4.30256 11.379 4.4552V6.52494H3.57845V4.4552C4.01216 4.30186 4.37771 4.00013 4.61048 3.60333C4.84324 3.20654 4.92824 2.74023 4.85045 2.28683C4.77266 1.83343 4.53708 1.42212 4.18537 1.12561C3.83365 0.829101 3.38843 0.666473 2.9284 0.666473C2.46838 0.666473 2.02316 0.829101 1.67144 1.12561C1.31972 1.42212 1.08415 1.83343 1.00636 2.28683C0.928569 2.74023 1.01357 3.20654 1.24633 3.60333C1.4791 4.00013 1.84464 4.30186 2.27836 4.4552V6.52494C2.27836 6.86974 2.41533 7.20042 2.65915 7.44424C2.90296 7.68805 3.23364 7.82502 3.57845 7.82502H6.82866V10.5448C6.39494 10.6981 6.0294 10.9999 5.79663 11.3967C5.56387 11.7935 5.47887 12.2598 5.55666 12.7132C5.63445 13.1666 5.87002 13.5779 6.22174 13.8744C6.57346 14.1709 7.01868 14.3335 7.4787 14.3335C7.93873 14.3335 8.38395 14.1709 8.73566 13.8744C9.08738 13.5779 9.32296 13.1666 9.40075 12.7132C9.47854 12.2598 9.39354 11.7935 9.16077 11.3967C8.92801 10.9999 8.56246 10.6981 8.12875 10.5448V7.82502H11.379C11.7238 7.82502 12.0544 7.68805 12.2983 7.44424C12.5421 7.20042 12.679 6.86974 12.679 6.52494V4.4552C13.1124 4.30256 13.4778 4.00146 13.7104 3.60525C13.9431 3.20903 14.028 2.74327 13.9501 2.29044C13.8723 1.83762 13.6367 1.42696 13.285 1.13121C12.9334 0.83545 12.4885 0.673681 12.029 0.674552ZM2.9284 3.27472C2.79984 3.27472 2.67416 3.2366 2.56726 3.16517C2.46036 3.09374 2.37704 2.99222 2.32784 2.87344C2.27864 2.75466 2.26577 2.62396 2.29085 2.49786C2.31593 2.37177 2.37784 2.25594 2.46875 2.16503C2.55966 2.07412 2.67549 2.01221 2.80159 1.98713C2.92768 1.96205 3.05838 1.97492 3.17716 2.02412C3.29594 2.07332 3.39747 2.15664 3.46889 2.26354C3.54032 2.37043 3.57845 2.49611 3.57845 2.62468C3.57845 2.79708 3.50996 2.96242 3.38805 3.08433C3.26615 3.20624 3.10081 3.27472 2.9284 3.27472ZM7.4787 13.0254C7.35014 13.0254 7.22446 12.9872 7.11756 12.9158C7.01066 12.8444 6.92734 12.7429 6.87814 12.6241C6.82894 12.5053 6.81607 12.3746 6.84115 12.2485C6.86623 12.1224 6.92814 12.0066 7.01905 11.9157C7.10996 11.8248 7.22579 11.7629 7.35189 11.7378C7.47798 11.7127 7.60868 11.7256 7.72746 11.7748C7.84624 11.824 7.94777 11.9073 8.01919 12.0142C8.09062 12.1211 8.12875 12.2468 8.12875 12.3753C8.12875 12.5477 8.06026 12.7131 7.93835 12.835C7.81645 12.9569 7.65111 13.0254 7.4787 13.0254ZM12.029 3.27472C11.9004 3.27472 11.7748 3.2366 11.6679 3.16517C11.561 3.09374 11.4776 2.99222 11.4284 2.87344C11.3792 2.75466 11.3664 2.62396 11.3914 2.49786C11.4165 2.37177 11.4784 2.25594 11.5694 2.16503C11.6603 2.07412 11.7761 2.01221 11.9022 1.98713C12.0283 1.96205 12.159 1.97492 12.2778 2.02412C12.3965 2.07332 12.4981 2.15664 12.5695 2.26354C12.6409 2.37043 12.679 2.49611 12.679 2.62468C12.679 2.79708 12.6106 2.96242 12.4887 3.08433C12.3667 3.20624 12.2014 3.27472 12.029 3.27472Z" fill="white"/>
</svg>
