<svg width="27" height="34" viewBox="0 0 27 34" fill="none" xmlns="http://www.w3.org/2000/svg">
<path d="M26.2989 31.7491L19.1956 21.0738C19.1144 20.9926 19.0332 20.9114 18.952 20.8709C21.428 18.8413 23.0111 15.7565 23.0111 12.3063C23.0111 6.17713 18.059 1.2251 11.9299 1.2251C5.80072 1.2251 0.848694 6.17713 0.848694 12.3063C0.848694 18.4354 5.80072 23.3875 11.9299 23.3875C14.0406 23.3875 15.9889 22.8192 17.6937 21.7638C17.6937 21.845 17.7343 21.9262 17.7749 22.0074L24.8376 32.6827C25.0406 32.9668 25.4465 33.048 25.7306 32.8856L26.0959 32.6421C26.3801 32.4797 26.4612 32.0738 26.2989 31.7491ZM1.82286 12.3063C1.82286 6.74539 6.3284 2.19927 11.9299 2.19927C17.5314 2.19927 22.0369 6.7048 22.0369 12.3063C22.0369 17.9078 17.4908 22.4133 11.9299 22.4133C6.36899 22.4133 1.82286 17.8672 1.82286 12.3063Z" fill="white" stroke="white" stroke-width="0.811808" stroke-miterlimit="10"/>
<path d="M9.37269 7.39481C9.37269 7.39481 11.3616 6.62359 14.5683 7.39481C14.5683 7.39481 15.9889 6.13651 17.2878 6.29887C17.2878 6.29887 17.9373 7.39481 17.4502 8.97784C17.4502 8.97784 19.155 10.9668 18.2214 13.8081C17.3284 16.6494 13.9188 16.8118 13.9188 16.8118C13.9188 16.8118 14.4871 17.5018 14.4871 18.1107C14.4871 18.7195 14.4871 21.6015 14.4871 21.6015C14.4871 21.6015 14.6494 22.0479 15.0959 21.8856C15.0959 21.8856 12.3358 23.0627 8.80442 21.9262C8.80442 21.9262 9.16973 22.0479 9.3321 21.642C9.49446 21.2361 9.37269 19.5719 9.37269 19.5719C9.37269 19.5719 6.85608 20.1402 6.12545 18.8007C5.39483 17.4612 5.39483 17.4612 5.39483 17.4612C5.39483 17.4612 4.98892 16.8524 4.33948 16.5682C4.33948 16.5682 4.09593 16.1623 4.6642 16.2435C5.23247 16.3247 5.55719 16.1217 6.73431 17.7048C7.87084 19.3284 9.37269 18.0701 9.37269 18.0701C9.37269 18.0701 9.41328 16.893 9.98154 16.8118C9.98154 16.8118 2.75645 16.1623 6.32841 8.93725C6.32841 8.93725 5.76014 7.15127 6.53136 6.25828C6.53136 6.29887 7.74907 5.93356 9.37269 7.39481Z" fill="white"/>
</svg>
