<svg width="43" height="43" viewBox="0 0 43 43" fill="none" xmlns="http://www.w3.org/2000/svg">
<path d="M32.8782 42.2952H9.41697C4.2214 42.2952 0 38.0738 0 32.8782V9.41697C0 4.2214 4.2214 0 9.41697 0H32.8782C38.0738 0 42.2952 4.2214 42.2952 9.41697V32.8782C42.2952 38.0738 38.0738 42.2952 32.8782 42.2952Z" fill="#393939"/>
<path d="M34.2989 37.7491L27.1956 27.0738C27.1144 26.9926 27.0332 26.9114 26.952 26.8709C29.428 24.8413 31.0111 21.7565 31.0111 18.3063C31.0111 12.1771 26.059 7.2251 19.9299 7.2251C13.8007 7.2251 8.84869 12.1771 8.84869 18.3063C8.84869 24.4354 13.8007 29.3875 19.9299 29.3875C22.0406 29.3875 23.9889 28.8192 25.6937 27.7638C25.6937 27.845 25.7343 27.9262 25.7749 28.0074L32.8376 38.6827C33.0406 38.9668 33.4465 39.048 33.7306 38.8856L34.0959 38.6421C34.3801 38.4797 34.4612 38.0738 34.2989 37.7491ZM9.82286 18.3063C9.82286 12.7454 14.3284 8.19927 19.9299 8.19927C25.5314 8.19927 30.0369 12.7048 30.0369 18.3063C30.0369 23.9078 25.4908 28.4133 19.9299 28.4133C14.369 28.4133 9.82286 23.8672 9.82286 18.3063Z" fill="white" stroke="white" stroke-width="0.811808" stroke-miterlimit="10"/>
<path d="M17.3727 13.3948C17.3727 13.3948 19.3616 12.6236 22.5683 13.3948C22.5683 13.3948 23.9889 12.1365 25.2878 12.2989C25.2878 12.2989 25.9373 13.3948 25.4502 14.9779C25.4502 14.9779 27.155 16.9668 26.2214 19.8081C25.3284 22.6495 21.9188 22.8118 21.9188 22.8118C21.9188 22.8118 22.4871 23.5019 22.4871 24.1107C22.4871 24.7196 22.4871 27.6015 22.4871 27.6015C22.4871 27.6015 22.6494 28.048 23.0959 27.8856C23.0959 27.8856 20.3358 29.0627 16.8044 27.9262C16.8044 27.9262 17.1697 28.048 17.3321 27.6421C17.4945 27.2362 17.3727 25.572 17.3727 25.572C17.3727 25.572 14.8561 26.1402 14.1255 24.8007C13.3948 23.4613 13.3948 23.4613 13.3948 23.4613C13.3948 23.4613 12.9889 22.8524 12.3395 22.5683C12.3395 22.5683 12.0959 22.1624 12.6642 22.2436C13.2325 22.3247 13.5572 22.1218 14.7343 23.7048C15.8708 25.3284 17.3727 24.0701 17.3727 24.0701C17.3727 24.0701 17.4133 22.893 17.9815 22.8118C17.9815 22.8118 10.7565 22.1624 14.3284 14.9373C14.3284 14.9373 13.7601 13.1513 14.5314 12.2583C14.5314 12.2989 15.7491 11.9336 17.3727 13.3948Z" fill="white"/>
</svg>
