<svg width="27" height="34" viewBox="0 0 27 34" fill="none" xmlns="http://www.w3.org/2000/svg">
<path d="M26.4502 31.524L19.3469 20.8487C19.2657 20.7675 19.1845 20.6863 19.1033 20.6458C21.5793 18.6162 23.1624 15.5314 23.1624 12.0812C23.1624 5.95203 18.2103 1 12.0812 1C5.95203 1 1 5.95203 1 12.0812C1 18.2103 5.95203 23.1624 12.0812 23.1624C14.1919 23.1624 16.1402 22.5941 17.845 21.5387C17.845 21.6199 17.8856 21.7011 17.9262 21.7823L24.9889 32.4576C25.1919 32.7417 25.5978 32.8229 25.8819 32.6605L26.2472 32.417C26.5314 32.2546 26.6125 31.8487 26.4502 31.524ZM1.97417 12.0812C1.97417 6.52029 6.4797 1.97417 12.0812 1.97417C17.6827 1.97417 22.1882 6.4797 22.1882 12.0812C22.1882 17.6827 17.6421 22.1882 12.0812 22.1882C6.52029 22.1882 1.97417 17.6421 1.97417 12.0812Z" fill="white" stroke="white" stroke-width="0.811808" stroke-miterlimit="10"/>
</svg>
