<svg width="15" height="14" viewBox="0 0 15 14" fill="none" xmlns="http://www.w3.org/2000/svg">
<path d="M3.4366 12.8595C3.36842 13.2476 3.75129 13.5509 4.08871 13.3778L7.92618 11.4058L11.7628 13.3778C12.1002 13.5509 12.4831 13.2476 12.4149 12.8603L11.6894 8.72566L14.7681 5.79205C15.0565 5.51757 14.9079 5.01582 14.5216 4.96162L10.24 4.35322L8.33091 0.570816C8.29454 0.494144 8.23716 0.429366 8.16544 0.384006C8.09372 0.338646 8.01061 0.314568 7.92575 0.314568C7.84089 0.314568 7.75777 0.338646 7.68605 0.384006C7.61433 0.429366 7.55695 0.494144 7.52058 0.570816L5.61146 4.35409L1.32993 4.96249C0.94443 5.01669 0.794952 5.51845 1.08254 5.79293L4.16214 8.72654L3.4366 12.8612V12.8595ZM7.72426 10.4407L4.50218 12.0963L5.10883 8.63738C5.12304 8.55775 5.11748 8.47586 5.09264 8.39889C5.06779 8.32192 5.02443 8.25222 4.96635 8.19593L2.4261 5.77457L5.96811 5.27106C6.04145 5.25999 6.11102 5.2313 6.17085 5.18745C6.23068 5.14361 6.27899 5.08591 6.31165 5.01931L7.92443 1.82171L9.53897 5.01931C9.57162 5.08591 9.61993 5.14361 9.67976 5.18745C9.7396 5.2313 9.80916 5.25999 9.88251 5.27106L13.4245 5.77369L10.8843 8.19506C10.8261 8.25144 10.7826 8.32128 10.7578 8.39841C10.7329 8.47555 10.7274 8.55762 10.7418 8.63738L11.3484 12.0963L8.12636 10.4407C8.06405 10.4086 7.99497 10.3918 7.92487 10.3918C7.85477 10.3918 7.78569 10.4086 7.72338 10.4407H7.72426Z" fill="#8C949E"/>
</svg>
