<svg width="14" height="11" viewBox="0 0 14 11" fill="none" xmlns="http://www.w3.org/2000/svg">
<path d="M13.8922 5.11534C12.4788 2.13799 10.3423 0.639626 7.47827 0.639626C4.61274 0.639626 2.47775 2.13799 1.06436 5.11683C1.00767 5.23688 0.978271 5.36799 0.978271 5.50074C0.978271 5.6335 1.00767 5.76461 1.06436 5.88465C2.47775 8.862 4.61423 10.3604 7.47827 10.3604C10.3438 10.3604 12.4788 8.86201 13.8922 5.88316C14.007 5.64164 14.007 5.36134 13.8922 5.11534V5.11534ZM7.47827 9.28691C5.07343 9.28691 3.31266 8.06735 2.07073 5.5C3.31266 2.93265 5.07343 1.71308 7.47827 1.71308C9.88311 1.71308 11.6439 2.93265 12.8858 5.5C11.6454 8.06735 9.8846 9.28691 7.47827 9.28691ZM7.41863 2.87599C5.96947 2.87599 4.79463 4.05083 4.79463 5.5C4.79463 6.94916 5.96947 8.124 7.41863 8.124C8.8678 8.124 10.0426 6.94916 10.0426 5.5C10.0426 4.05083 8.8678 2.87599 7.41863 2.87599ZM7.41863 7.16982C6.49576 7.16982 5.74881 6.42287 5.74881 5.5C5.74881 4.57712 6.49576 3.83018 7.41863 3.83018C8.34151 3.83018 9.08845 4.57712 9.08845 5.5C9.08845 6.42287 8.34151 7.16982 7.41863 7.16982Z" fill="white"/>
</svg>
