<svg width="35" height="35" viewBox="0 0 35 35" fill="none" xmlns="http://www.w3.org/2000/svg">
<path fill-rule="evenodd" clip-rule="evenodd" d="M17.5 0C7.83125 0 0 7.83125 0 17.5C0 25.2438 5.00938 31.7844 11.9656 34.1031C12.8406 34.2563 13.1687 33.7313 13.1687 33.2719C13.1687 32.8563 13.1469 31.4781 13.1469 30.0125C8.75 30.8219 7.6125 28.9406 7.2625 27.9563C7.06563 27.4531 6.2125 25.9 5.46875 25.4844C4.85625 25.1563 3.98125 24.3469 5.44688 24.325C6.825 24.3031 7.80938 25.5938 8.1375 26.1187C9.7125 28.7656 12.2281 28.0219 13.2344 27.5625C13.3875 26.425 13.8469 25.6594 14.35 25.2219C10.4563 24.7844 6.3875 23.275 6.3875 16.5813C6.3875 14.6781 7.06563 13.1031 8.18125 11.8781C8.00625 11.4406 7.39375 9.64688 8.35625 7.24063C8.35625 7.24063 9.82187 6.78125 13.1687 9.03438C14.5688 8.64062 16.0562 8.44375 17.5438 8.44375C19.0312 8.44375 20.5188 8.64062 21.9188 9.03438C25.2656 6.75938 26.7313 7.24063 26.7313 7.24063C27.6938 9.64688 27.0813 11.4406 26.9063 11.8781C28.0219 13.1031 28.7 14.6562 28.7 16.5813C28.7 23.2969 24.6094 24.7844 20.7156 25.2219C21.35 25.7688 21.8969 26.8188 21.8969 28.4594C21.8969 30.8 21.875 32.6813 21.875 33.2719C21.875 33.7313 22.2031 34.2781 23.0781 34.1031C26.5521 32.9302 29.5709 30.6975 31.7095 27.7191C33.8481 24.7407 34.999 21.1667 35 17.5C35 7.83125 27.1688 0 17.5 0Z" fill="#C4C4C4"/>
</svg>
