<svg width="165" height="43" viewBox="0 0 165 43" fill="none" xmlns="http://www.w3.org/2000/svg">
<path d="M32.8782 42.2952H9.41697C4.2214 42.2952 0 38.0738 0 32.8782V9.41697C0 4.2214 4.2214 0 9.41697 0H32.8782C38.0738 0 42.2952 4.2214 42.2952 9.41697V32.8782C42.2952 38.0738 38.0738 42.2952 32.8782 42.2952Z" fill="#393939"/>
<path d="M34.2989 37.7491L27.1956 27.0738C27.1144 26.9926 27.0332 26.9114 26.952 26.8709C29.428 24.8413 31.0111 21.7565 31.0111 18.3063C31.0111 12.1771 26.059 7.2251 19.9299 7.2251C13.8007 7.2251 8.84869 12.1771 8.84869 18.3063C8.84869 24.4354 13.8007 29.3875 19.9299 29.3875C22.0406 29.3875 23.9889 28.8192 25.6937 27.7638C25.6937 27.845 25.7343 27.9262 25.7749 28.0074L32.8376 38.6827C33.0406 38.9668 33.4465 39.048 33.7306 38.8856L34.0959 38.6421C34.3801 38.4797 34.4612 38.0738 34.2989 37.7491ZM9.82286 18.3063C9.82286 12.7454 14.3284 8.19927 19.9299 8.19927C25.5314 8.19927 30.0369 12.7048 30.0369 18.3063C30.0369 23.9078 25.4908 28.4133 19.9299 28.4133C14.369 28.4133 9.82286 23.8672 9.82286 18.3063Z" fill="white" stroke="white" stroke-width="0.811808" stroke-miterlimit="10"/>
<path d="M17.3727 13.3948C17.3727 13.3948 19.3616 12.6236 22.5683 13.3948C22.5683 13.3948 23.9889 12.1365 25.2878 12.2989C25.2878 12.2989 25.9373 13.3948 25.4502 14.9779C25.4502 14.9779 27.155 16.9668 26.2214 19.8081C25.3284 22.6495 21.9188 22.8118 21.9188 22.8118C21.9188 22.8118 22.4871 23.5019 22.4871 24.1107C22.4871 24.7196 22.4871 27.6015 22.4871 27.6015C22.4871 27.6015 22.6494 28.048 23.0959 27.8856C23.0959 27.8856 20.3358 29.0627 16.8044 27.9262C16.8044 27.9262 17.1697 28.048 17.3321 27.6421C17.4945 27.2362 17.3727 25.572 17.3727 25.572C17.3727 25.572 14.8561 26.1402 14.1255 24.8007C13.3948 23.4613 13.3948 23.4613 13.3948 23.4613C13.3948 23.4613 12.9889 22.8524 12.3395 22.5683C12.3395 22.5683 12.0959 22.1624 12.6642 22.2436C13.2325 22.3247 13.5572 22.1218 14.7343 23.7048C15.8708 25.3284 17.3727 24.0701 17.3727 24.0701C17.3727 24.0701 17.4133 22.893 17.9815 22.8118C17.9815 22.8118 10.7565 22.1624 14.3284 14.9373C14.3284 14.9373 13.7601 13.1513 14.5314 12.2583C14.5314 12.2989 15.7491 11.9336 17.3727 13.3948Z" fill="white"/>
<path d="M51.7527 20.7417C51.7527 14.4908 55.7306 10.7565 60.8044 10.7565C63.1587 10.7565 64.8634 11.6495 66.0406 12.7048C66.3247 12.9484 66.3653 13.4354 66.1217 13.7196L65.2288 14.7749C64.9852 15.0996 64.4981 15.1402 64.214 14.8967C63.3616 14.2067 62.3468 13.7196 60.8856 13.7196C57.476 13.7196 55.2029 16.3579 55.2029 20.6605C55.2029 25.0037 57.2324 27.6827 61.0479 27.6827C61.9409 27.6827 62.7933 27.4797 63.4428 27.0738C63.6457 26.952 63.7675 26.7085 63.7675 26.465V23.4613C63.7675 23.0554 63.4428 22.7306 63.0369 22.7306H60.9262C60.5203 22.7306 60.1956 22.4059 60.1956 22V20.7011C60.1956 20.2952 60.5203 19.9705 60.9262 19.9705H66.0812C66.4871 19.9705 66.8118 20.2952 66.8118 20.7011V28.0074C66.8118 28.2103 66.7306 28.4133 66.5682 28.5351C65.2694 29.7122 63.1587 30.5646 60.6826 30.5646C55.5682 30.5646 51.7527 27.0738 51.7527 20.7417Z" fill="white"/>
<path d="M70.6273 24.8819V16.6015C70.6273 16.1956 70.952 15.8708 71.3579 15.8708H73.2251C73.631 15.8708 73.9557 16.1956 73.9557 16.6015V24.4354C73.9557 26.7897 74.6458 27.6827 76.1882 27.6827C77.4059 27.6827 78.1771 27.155 79.1919 25.8967C79.3137 25.7749 79.3543 25.6125 79.3543 25.4502V16.6015C79.3543 16.1956 79.679 15.8708 80.0849 15.8708H81.952C82.3579 15.8708 82.6827 16.1956 82.6827 16.6015V29.4686C82.6827 29.8745 82.3579 30.1993 81.952 30.1993H80.6126C80.2472 30.1993 79.9225 29.9151 79.8819 29.5498L79.7196 28.0886H79.6384C78.3801 29.5904 77 30.5646 75.0111 30.5646C71.9668 30.5646 70.6273 28.4945 70.6273 24.8819Z" fill="white"/>
<path d="M90.1107 28.738H90.0295L89.8671 29.631C89.786 29.9963 89.5018 30.2399 89.1365 30.2399H87.8376C87.4317 30.2399 87.107 29.9151 87.107 29.5092V10.31C87.107 9.90407 87.4317 9.57935 87.8376 9.57935H89.7048C90.1107 9.57935 90.4354 9.90407 90.4354 10.31V14.8967L90.3948 15.7491C90.3542 16.3579 91.0037 16.7233 91.5313 16.3985C92.4649 15.8303 93.4797 15.5055 94.4944 15.5055C98.0664 15.5055 100.177 18.3875 100.177 22.8118C100.177 27.7233 97.2546 30.5646 94.048 30.5646C92.7085 30.5646 91.2878 29.9151 90.1107 28.738ZM96.6863 22.8524C96.6863 19.9705 95.7527 18.3063 93.5609 18.3063C92.5055 18.3063 91.5313 18.834 90.4354 19.9299V26.6273C91.4502 27.5203 92.4649 27.8044 93.3173 27.8044C95.2251 27.8044 96.6863 26.0996 96.6863 22.8524Z" fill="white"/>
<path d="M104.358 11.1218H106.266C106.672 11.1218 106.996 11.4465 106.996 11.8524V26.6273C106.996 27.0332 107.321 27.3579 107.727 27.3579H114.181C114.587 27.3579 114.911 27.6826 114.911 28.0886V29.4686C114.911 29.8745 114.587 30.1993 114.181 30.1993H104.317C103.911 30.1993 103.587 29.8745 103.587 29.4686V11.8524C103.627 11.4465 103.952 11.1218 104.358 11.1218Z" fill="white"/>
<path d="M117.631 11.4465C117.631 10.31 118.524 9.53876 119.701 9.53876C120.878 9.53876 121.771 10.31 121.771 11.4465C121.771 12.5424 120.878 13.3543 119.701 13.3543C118.524 13.3543 117.631 12.583 117.631 11.4465ZM118.727 15.8709H120.594C121 15.8709 121.325 16.1956 121.325 16.6015V29.4686C121.325 29.8745 121 30.1993 120.594 30.1993H118.727C118.321 30.1993 117.996 29.8745 117.996 29.4686V16.6015C117.996 16.1956 118.321 15.8709 118.727 15.8709Z" fill="white"/>
<path d="M124.694 32.8376C124.694 31.6199 125.424 30.5646 126.764 29.7933V29.6716C126.033 29.1845 125.465 28.4133 125.465 27.2767C125.465 26.1808 126.236 25.166 127.048 24.5978V24.476C126.074 23.7454 125.14 22.3653 125.14 20.7011C125.14 17.4133 127.819 15.5461 130.823 15.5461C131.553 15.5461 132.284 15.6679 132.852 15.8708C132.934 15.9114 133.015 15.9114 133.096 15.9114H137.358C137.764 15.9114 138.089 16.2361 138.089 16.6421V17.6568C138.089 18.0627 137.764 18.3874 137.358 18.3874H136.749C136.221 18.3874 135.897 18.9151 136.059 19.4022C136.221 19.8081 136.303 20.2952 136.303 20.7823C136.303 23.9889 133.867 25.6937 130.823 25.6937C130.336 25.6937 129.808 25.6125 129.28 25.4502C128.996 25.369 128.712 25.4502 128.509 25.6937C128.306 25.9778 128.184 26.262 128.184 26.7085C128.184 27.5203 128.753 28.0074 130.498 28.0074H133.055C136.506 28.0074 138.292 29.0627 138.292 31.5387C138.292 34.3801 135.328 36.6125 130.62 36.6125C127.21 36.5719 124.694 35.3542 124.694 32.8376ZM135.044 32.0664C135.044 30.9705 134.151 30.6457 132.528 30.6457H130.539C129.93 30.6457 129.402 30.6052 128.915 30.524C128.672 30.4834 128.428 30.5646 128.266 30.7269C127.697 31.2546 127.454 31.7823 127.454 32.3505C127.454 33.6494 128.875 34.4207 131.107 34.4207C133.461 34.3801 135.044 33.3247 135.044 32.0664ZM133.299 20.6605C133.299 18.8745 132.203 17.8192 130.823 17.8192C129.443 17.8192 128.347 18.8339 128.347 20.6605C128.347 22.4871 129.443 23.5424 130.823 23.5424C132.203 23.5424 133.299 22.4871 133.299 20.6605Z" fill="white"/>
<path d="M141.579 9.57935H143.446C143.852 9.57935 144.177 9.90407 144.177 10.31V14.8967L144.137 15.9926C144.096 16.6015 144.786 17.0074 145.314 16.6421C146.247 15.9926 147.303 15.5055 148.642 15.5055C151.727 15.5055 153.066 17.5757 153.066 21.2288V29.4686C153.066 29.8745 152.742 30.1993 152.336 30.1993H150.469C150.063 30.1993 149.738 29.8745 149.738 29.4686V21.6753C149.738 19.321 149.048 18.4281 147.506 18.4281C146.328 18.4281 145.517 18.9557 144.461 20.0111C144.299 20.1329 144.218 20.3358 144.218 20.5388V29.5092C144.218 29.9151 143.893 30.2399 143.487 30.2399H141.62C141.214 30.2399 140.889 29.9151 140.889 29.5092V10.31C140.849 9.90407 141.173 9.57935 141.579 9.57935Z" fill="white"/>
<path d="M157.653 25.4096V19.321C157.653 18.9151 157.328 18.5904 156.922 18.5904H156.354C155.948 18.5904 155.624 18.2657 155.624 17.8598V16.7638C155.624 16.3579 155.908 16.0332 156.314 16.0332L157.207 15.952C157.572 15.9114 157.856 15.6273 157.897 15.3026L158.181 12.6642C158.221 12.2989 158.546 12.0148 158.911 12.0148H160.291C160.697 12.0148 161.022 12.3395 161.022 12.7454V15.1808C161.022 15.5867 161.347 15.9114 161.753 15.9114H163.945C164.351 15.9114 164.675 16.2362 164.675 16.6421V17.8192C164.675 18.2251 164.351 18.5498 163.945 18.5498H161.753C161.347 18.5498 161.022 18.8745 161.022 19.2805V25.369C161.022 27.0738 161.672 27.8856 163.052 27.8856C163.295 27.8856 163.579 27.845 163.823 27.7639C164.229 27.6827 164.635 27.9262 164.716 28.3321L164.959 29.3469C165.041 29.7528 164.797 30.1181 164.432 30.2399C163.782 30.4022 163.011 30.5646 162.199 30.5646C158.911 30.5646 157.653 28.4945 157.653 25.4096Z" fill="white"/>
</svg>
